<?xml version="1.0" encoding="utf-8"?>
<!-- Generator: Adobe Illustrator 25.2.0, SVG Export Plug-In . SVG Version: 6.00 Build 0)  -->
<svg version="1.1" id="Layer_1" xmlns="http://www.w3.org/2000/svg" xmlns:xlink="http://www.w3.org/1999/xlink" x="0px" y="0px"
	 viewBox="0 0 237.9 75.6" style="enable-background:new 0 0 237.9 75.6;" xml:space="preserve">
<style type="text/css">
	.st0{fill-rule:evenodd;clip-rule:evenodd;fill:#FCF060;}
	.st1{fill-rule:evenodd;clip-rule:evenodd;fill:#FFFFFF;}
</style>
<g>
	<path id="Fill-23" class="st0" d="M56.6,57.8c-29.3,0-53.1-12.2-53.1-27.3c0-5.4,3.1-10.5,8.4-14.7C4.5,20.5,0,26.5,0,33.1
		c0,15.1,23.8,27.3,53.1,27.3c18.8,0,35.3-5,44.7-12.5C88.1,53.9,73.2,57.8,56.6,57.8"/>
	<path id="Fill-24" class="st1" d="M22.5,19.6h-7.1C14,19.6,13,19,13,17.9s1-1.6,2.3-1.6h19c1.3,0,2.3,0.5,2.3,1.6s-1,1.6-2.3,1.6
		h-7.1V43c0,1.2-0.9,1.9-2.4,1.9c-1.4,0-2.4-0.7-2.4-1.9V19.6"/>
	<path id="Fill-25" class="st1" d="M55.6,31.7c-1.3,0-2.3-0.5-2.3-1.6s1-1.6,2.3-1.6h7.9c2.4,0,3.4,0.7,3.4,2.9
		c0,6.8-3.3,13.6-16.3,13.6c-11,0-16.7-7-16.7-14.4s5.5-14.4,17.4-14.4c7.8,0,13.1,3,13.1,4.5c0,0.9-0.9,1.7-2.3,1.7
		c-2.4,0-4.3-3.2-11.2-3.2c-8.6,0-12.1,6-12.1,11.4S42.2,42,51.1,42c7.4,0,11-4.7,11-8.5v-1.7L55.6,31.7"/>
	<path id="Fill-26" class="st1" d="M74.7,42.7c0,1.4-0.9,2.1-2.4,2.1c-1.4,0-2.4-0.7-2.4-2.1V18.2c0-1.4,0.9-2.1,2.4-2.1
		c1.4,0,2.4,0.7,2.4,2.1v10.7h20.1V18.2c0-1.4,0.9-2.1,2.4-2.1c1.4,0,2.4,0.7,2.4,2.1v24.6c0,1.4-0.9,2.1-2.4,2.1s-2.4-0.7-2.4-2.1
		V31.9H74.7V42.7"/>
</g>
<g>
	<polyline id="Fill-1" class="st1" points="125.5,2.9 118.6,2.9 118.6,0 136.8,0 136.8,2.9 130.1,2.9 130.1,21.3 125.5,21.3 
		125.5,2.9 	"/>
	<path id="Fill-2" class="st1" d="M148.2,8.8c0-2.8-3.1-3.9-6.9-3.9c-5.7,0-7.6,1.9-7.6,5.3h4.1c0-1.6,0.4-3.1,3.3-3.1
		c2.3,0,3,0.9,3,2.4c0,1.4-1,1.7-2.5,2.1l-3.4,0.7c-2.9,0.7-5,1.5-5,5.1c0,3.1,2.2,4.5,5.6,4.5c2.5,0,4.2-0.8,5.4-2.4h0.1
		c0.1,1.6,1.7,2.1,3.7,2.1c0.8,0,1.6-0.2,2.1-0.4V19c-0.2,0.1-0.4,0.1-0.7,0.1c-0.6,0-1.1-0.5-1.1-1.1V8.8H148.2z M144.1,15.5
		c0,2.4-1.3,3.8-3.9,3.8c-1.8,0-2.7-1.1-2.7-2.4c0-1.2,0.5-2.2,1.8-2.6c1.3-0.4,3.7-0.8,4.8-1.5L144.1,15.5L144.1,15.5z"/>
	<path id="Fill-3" class="st1" d="M151.4,5.3h4.1v1.9h0.1c1.1-1.4,3.1-2.3,5.2-2.3c3.1,0,4.4,1.1,5,2.5c1.3-1.6,2.9-2.5,5.5-2.5
		c3.1,0,5.3,1.2,5.3,4.3v12.2h-4.4v-11c0-2.1-0.8-2.9-2.6-2.9s-3.5,1-3.5,3.1v10.8h-4.4v-11c0-2.1-0.8-2.9-2.7-2.9
		c-1.7,0-3.4,1-3.4,3.1v10.8h-4.4V5.3"/>
	<path id="Fill-4" class="st1" d="M178.9,26.6h4.4v-7.1h0.1c0.8,1.4,2.6,2.3,4.9,2.3c3,0,6.7-1.5,6.7-8.3c0-5.5-2-8.7-7-8.7
		c-2.4,0-4,1-4.9,2.4H183v-2h-4.1V26.6z M183,13.1c0-3.4,0.7-5.7,3.7-5.7s3.7,2.3,3.7,5.9c0,4.5-1.1,5.8-3.6,5.8
		C183.6,19.2,183,17,183,13.1L183,13.1z"/>
	<path id="Fill-5" class="st1" d="M211.1,8.8c0-2.8-3.1-3.9-6.9-3.9c-5.7,0-7.6,1.9-7.6,5.3h4.1c0-1.6,0.4-3.1,3.3-3.1
		c2.3,0,3,0.9,3,2.4c0,1.4-1,1.7-2.5,2.1l-3.4,0.7c-2.9,0.7-5,1.5-5,5.1c0,3.1,2.2,4.5,5.7,4.5c2.5,0,4.2-0.8,5.4-2.4h0.1
		c0.1,1.6,1.7,2.1,3.7,2.1c0.8,0,1.6-0.2,2.1-0.4V19c-0.2,0.1-0.4,0.1-0.7,0.1c-0.6,0-1.1-0.5-1.1-1.1V8.8H211.1z M207,15.5
		c0,2.4-1.3,3.8-3.9,3.8c-1.8,0-2.7-1.1-2.7-2.4c0-1.2,0.5-2.2,1.8-2.6c1.3-0.4,3.7-0.8,4.8-1.5L207,15.5L207,15.5z"/>
	<path id="Fill-6" class="st1" d="M135,43.4L135,43.4c-1.3,2-3,2.9-6.4,2.9c-6.3,0-8.6-3.5-8.6-11.1s2.9-11.1,9.6-11.1
		c7.2,0,8.4,4.2,8.4,6.2v0.4h-4.4v-0.5c0-1.6-0.9-3.5-4-3.5c-3.3,0-5,1.6-5,8.4c0,6.9,1.5,8.6,4.6,8.6c3.5,0,4.8-1.9,4.8-6.5h-4.8
		v-2.6h9.2v11.2H135V43.4"/>
	<path id="Fill-7" class="st1" d="M155,38.2v-1.7c0-4.5-1.6-7.2-7.7-7.2c-6.8,0-8,4.5-8,8.7c0,7.4,4.4,8.2,7.9,8.2
		c4.7,0,7.6-2.2,7.6-5.8h-4.1c0,1-0.4,3.6-3.5,3.6c-3.3,0-3.6-2.8-3.6-4.9v-0.9C143.6,38.2,155,38.2,155,38.2z M143.7,36v-0.3
		c0-2.1,0.8-4.1,3.6-4.1c2.5,0,3.3,1.6,3.3,3.6V36H143.7L143.7,36z"/>
	<path id="Fill-8" class="st1" d="M157.2,29.8h4.1v1.9h0.1c1.1-1.4,3.1-2.3,5.6-2.3c3.3,0,5.4,1.1,5.4,4.4v12.1H168v-11
		c0-2.1-0.8-2.9-3-2.9c-1.8,0-3.5,1-3.5,3.1v10.8h-4.4L157.2,29.8"/>
	<path id="Fill-9" class="st1" d="M189.5,38.2v-1.7c0-4.5-1.6-7.2-7.7-7.2c-6.8,0-8,4.5-8,8.7c0,7.4,4.4,8.2,8,8.2
		c4.7,0,7.6-2.2,7.6-5.8h-4.1c0,1-0.4,3.6-3.5,3.6c-3.3,0-3.6-2.8-3.6-4.9v-0.9C178.2,38.2,189.5,38.2,189.5,38.2z M178.1,36v-0.3
		c0-2.1,0.8-4.1,3.6-4.1c2.5,0,3.4,1.6,3.4,3.6V36H178.1L178.1,36z"/>
	<path id="Fill-10" class="st1" d="M191.7,29.8h4.4v2.5h0.1c1-1.8,2.6-2.9,5-2.9c0.5,0,0.8,0.1,1,0.1v3.3c-0.3-0.1-1.1-0.2-1.8-0.2
		c-2,0-4.4,0.7-4.4,3.6v9.6h-4.4L191.7,29.8"/>
	<path id="Fill-11" class="st1" d="M217.8,33.3c0-2.8-3.1-3.9-6.9-3.9c-5.7,0-7.6,1.9-7.6,5.3h4.1c0-1.6,0.4-3.1,3.3-3.1
		c2.3,0,3,0.9,3,2.4c0,1.4-1,1.7-2.5,2.1l-3.4,0.7c-2.9,0.7-5,1.5-5,5.1c0,3.1,2.2,4.5,5.6,4.5c2.5,0,4.2-0.8,5.4-2.4h0.1
		c0.1,1.6,1.7,2.1,3.7,2.1c0.8,0,1.6-0.2,2.1-0.4v-2.1c-0.2,0.1-0.4,0.1-0.7,0.1c-0.6,0-1.1-0.5-1.1-1.1v-9.3
		C217.9,33.3,217.8,33.3,217.8,33.3z M213.7,40c0,2.4-1.3,3.8-3.9,3.8c-1.8,0-2.7-1.1-2.7-2.4c0-1.2,0.5-2.2,1.8-2.6
		c1.3-0.4,3.7-0.8,4.8-1.5L213.7,40L213.7,40z"/>
	<polygon id="Fill-12" class="st1" points="221,45.8 225.4,45.8 225.4,24.5 221,24.5 	"/>
	<polyline id="Fill-13" class="st1" points="120.7,49 125.3,49 125.3,57.5 133.8,57.5 133.8,49 138.4,49 138.4,70.3 133.8,70.3 
		133.8,60.4 125.3,60.4 125.3,70.3 120.7,70.3 120.7,49 	"/>
	<path id="Fill-14" class="st1" d="M139.8,62.3c0,5,2.1,8.5,8.1,8.5c6.1,0,8.1-3.5,8.1-8.5s-1.8-8.5-8.1-8.5
		C141.6,53.8,139.8,57.3,139.8,62.3z M144.2,62.3c0-3.6,0.6-6.1,3.7-6.1c3.2,0,3.8,2.5,3.8,6.1c0,4.1-0.6,6.1-3.8,6.1
		C144.8,68.4,144.2,66.4,144.2,62.3L144.2,62.3z"/>
	<path id="Fill-15" class="st1" d="M167.3,59v-0.4c0-1.3-0.6-2.5-2.9-2.5c-1.7,0-3.1,0.6-3.1,2.1c0,1.3,0.8,1.8,3.1,2.4l2.8,0.7
		c3.2,0.8,4.7,2.1,4.7,4.6c0,3.4-3.4,4.9-7.8,4.9c-5.5,0-7.1-1.9-7.1-5v-0.6h3.9v0.5c0,1.9,0.9,2.9,3.4,2.9c2.4,0,3.6-0.9,3.6-2.4
		c0-1.2-0.8-2-2.4-2.4l-3.6-0.9c-3.3-0.8-4.6-2.1-4.6-4.6c0-3,2.9-4.4,7.4-4.4c5.5,0,6.8,2.4,6.8,4.4V59H167.3"/>
	<path id="Fill-17" class="st1" d="M173.7,75.6h4.4v-7.1h0.1c0.8,1.4,2.6,2.3,4.9,2.3c3,0,6.7-1.5,6.7-8.3c0-5.5-2-8.7-7-8.7
		c-2.4,0-4,1-4.9,2.4h-0.1v-2h-4.1L173.7,75.6L173.7,75.6z M177.9,62.1c0-3.4,0.7-5.7,3.7-5.7s3.7,2.3,3.7,5.9
		c0,4.5-1.1,5.8-3.6,5.8C178.5,68.2,177.9,66,177.9,62.1L177.9,62.1z"/>
	<path id="Fill-19" class="st1" d="M191.1,52h4.4v-3.2h-4.4V52z M191.1,70.3h4.4v-16h-4.4V70.3z"/>
	<path id="Fill-20" class="st1" d="M197.3,54.3h3v-4.6h4.4v4.6h3.5v2.4h-3.5v9.6c0,1.3,0.5,1.7,2,1.7c0.6,0,1.2,0,1.6-0.1v2.4
		c-0.9,0.2-2.1,0.3-3.5,0.3c-2.9,0-4.4-0.6-4.4-3.9v-10h-3v-2.4"/>
	<path id="Fill-21" class="st1" d="M225,57.8c0-2.8-3.1-3.9-6.9-3.9c-5.7,0-7.6,1.9-7.6,5.3h4.1c0-1.6,0.4-3.1,3.3-3.1
		c2.3,0,3,0.9,3,2.4c0,1.4-1,1.7-2.5,2.1l-3.4,0.7c-2.9,0.7-5,1.5-5,5.1c0,3.1,2.2,4.5,5.6,4.5c2.5,0,4.2-0.8,5.4-2.4h0.1
		c0.1,1.6,1.7,2.1,3.7,2.1c0.8,0,1.6-0.2,2.1-0.4V68c-0.2,0.1-0.4,0.1-0.7,0.1c-0.6,0-1.1-0.5-1.1-1.1v-9.2H225z M220.8,64.5
		c0,2.4-1.3,3.8-3.9,3.8c-1.8,0-2.7-1.1-2.7-2.4c0-1.2,0.5-2.2,1.8-2.6c1.3-0.4,3.7-0.8,4.8-1.5L220.8,64.5L220.8,64.5z"/>
	<polygon id="Fill-22" class="st1" points="228.2,70.3 232.5,70.3 232.5,49 228.2,49 	"/>
	<path id="Fill-27" class="st1" d="M236,69h0.2c0.2,0,0.5-0.1,0.5-0.3c0-0.2-0.1-0.3-0.5-0.3c-0.1,0-0.2,0-0.2,0V69z M236,70h-0.3
		v-1.9c0.2,0,0.3,0,0.5,0c0.3,0,0.5,0.1,0.6,0.1c0.1,0.1,0.2,0.2,0.2,0.4c0,0.2-0.2,0.4-0.4,0.5l0,0c0.2,0,0.3,0.2,0.3,0.5
		s0.1,0.4,0.1,0.5h-0.3c0-0.1-0.1-0.2-0.1-0.5c0-0.2-0.2-0.3-0.4-0.3H236V70z M236.3,67.7c-0.7,0-1.3,0.6-1.3,1.4s0.6,1.4,1.3,1.4
		s1.3-0.6,1.3-1.4C237.6,68.3,237.1,67.7,236.3,67.7L236.3,67.7z M236.3,67.4c0.9,0,1.6,0.7,1.6,1.7c0,0.9-0.7,1.7-1.6,1.7
		c-0.9,0-1.7-0.7-1.7-1.7S235.4,67.4,236.3,67.4L236.3,67.4L236.3,67.4z"/>
</g>
</svg>
